<?xml version="1.0" encoding="UTF-8" standalone="no"?>
<!DOCTYPE svg PUBLIC "-//W3C//DTD SVG 1.1//EN" "http://www.w3.org/Graphics/SVG/1.1/DTD/svg11.dtd">
<svg version="1.1" xmlns="http://www.w3.org/2000/svg" xmlns:xlink="http://www.w3.org/1999/xlink" preserveAspectRatio="xMidYMid meet" viewBox="0 0 640 640" width="200" height="200"><defs><path d="M115.1 258.11L524.9 258.11L524.9 477.69L115.1 477.69L115.1 258.11Z" id="a8YMZaeWRq"></path><path d="M115.1 477.69L524.9 258.11L524.9 477.69L115.1 258.11" id="b1fAYv121d"></path><path d="M308.96 191.74C308.96 208.85 295.07 222.74 277.96 222.74C260.85 222.74 246.96 208.85 246.96 191.74C246.96 174.63 260.85 160.74 277.96 160.74C295.07 160.74 308.96 174.63 308.96 191.74Z" id="gktFFGc1K"></path><path d="M393.04 191.74C393.04 208.85 379.15 222.74 362.04 222.74C344.93 222.74 331.04 208.85 331.04 191.74C331.04 174.63 344.93 160.74 362.04 160.74C379.15 160.74 393.04 174.63 393.04 191.74Z" id="b3Xc81DVZC"></path></defs><g><g><g><g><use xlink:href="#a8YMZaeWRq" opacity="1" fill-opacity="0" stroke="#000000" stroke-width="15" stroke-opacity="1"></use></g></g><g><g><use xlink:href="#b1fAYv121d" opacity="1" fill-opacity="0" stroke="#000000" stroke-width="9" stroke-opacity="1"></use></g></g><g><use xlink:href="#gktFFGc1K" opacity="1" fill="#000000" fill-opacity="1"></use></g><g><use xlink:href="#b3Xc81DVZC" opacity="1" fill="#000000" fill-opacity="1"></use></g></g></g></svg>