<?xml version="1.0" encoding="UTF-8" standalone="no"?>
<!DOCTYPE svg PUBLIC "-//W3C//DTD SVG 1.1//EN" "http://www.w3.org/Graphics/SVG/1.1/DTD/svg11.dtd">
<svg version="1.1" xmlns="http://www.w3.org/2000/svg" xmlns:xlink="http://www.w3.org/1999/xlink" preserveAspectRatio="xMidYMid meet" viewBox="0 0 640 640" width="200" height="200"><defs><path d="M266.56 196.19C266.56 213.29 252.66 227.19 235.56 227.19C218.45 227.19 204.56 213.29 204.56 196.19C204.56 179.08 218.45 165.19 235.56 165.19C252.66 165.19 266.56 179.08 266.56 196.19Z" id="e7IjerN0KW"></path><path d="M350.63 196.93C350.63 214.04 336.74 227.93 319.63 227.93C302.52 227.93 288.63 214.04 288.63 196.93C288.63 179.82 302.52 165.93 319.63 165.93C336.74 165.93 350.63 179.82 350.63 196.93Z" id="b6a39w9ZC"></path><path d="M435.44 196.93C435.44 214.04 421.55 227.93 404.44 227.93C387.34 227.93 373.44 214.04 373.44 196.93C373.44 179.82 387.34 165.93 404.44 165.93C421.55 165.93 435.44 179.82 435.44 196.93Z" id="bmY6NZBoZ"></path><path d="M112.14 249.96L529.34 249.96L529.34 486.58L112.14 486.58L112.14 249.96Z" id="aLOu1XVBS"></path><path d="M115.1 477.69L524.9 258.11L524.9 477.69L115.1 258.11" id="c1ijj2ujWc"></path></defs><g><g><g><g><filter id="shadow9641901" x="139.56" y="100.19" width="192" height="192" filterUnits="userSpaceOnUse" primitiveUnits="userSpaceOnUse"><feFlood></feFlood><feComposite in2="SourceAlpha" operator="in"></feComposite><feGaussianBlur stdDeviation="4.47"></feGaussianBlur><feOffset dx="0" dy="0" result="afterOffset"></feOffset><feFlood flood-color="#000000" flood-opacity="1"></feFlood><feComposite in2="afterOffset" operator="in"></feComposite><feMorphology operator="dilate" radius="20"></feMorphology><feComposite in2="SourceAlpha" operator="out"></feComposite></filter><path d="M266.56 196.19C266.56 213.29 252.66 227.19 235.56 227.19C218.45 227.19 204.56 213.29 204.56 196.19C204.56 179.08 218.45 165.19 235.56 165.19C252.66 165.19 266.56 179.08 266.56 196.19Z" id="i6bR3DutqB" fill="white" fill-opacity="1" filter="url(#shadow9641901)"></path></g><use xlink:href="#e7IjerN0KW" opacity="1" fill="#ff7f00" fill-opacity="1"></use></g><g><g><filter id="shadow12251260" x="223.63" y="100.93" width="192" height="192" filterUnits="userSpaceOnUse" primitiveUnits="userSpaceOnUse"><feFlood></feFlood><feComposite in2="SourceAlpha" operator="in"></feComposite><feGaussianBlur stdDeviation="4.47"></feGaussianBlur><feOffset dx="0" dy="0" result="afterOffset"></feOffset><feFlood flood-color="#000000" flood-opacity="1"></feFlood><feComposite in2="afterOffset" operator="in"></feComposite><feMorphology operator="dilate" radius="20"></feMorphology><feComposite in2="SourceAlpha" operator="out"></feComposite></filter><path d="M350.63 196.93C350.63 214.04 336.74 227.93 319.63 227.93C302.52 227.93 288.63 214.04 288.63 196.93C288.63 179.82 302.52 165.93 319.63 165.93C336.74 165.93 350.63 179.82 350.63 196.93Z" id="a7fe1rICDT" fill="white" fill-opacity="1" filter="url(#shadow12251260)"></path></g><use xlink:href="#b6a39w9ZC" opacity="1" fill="#ff7f00" fill-opacity="1"></use></g><g><g><filter id="shadow5659172" x="308.44" y="100.93" width="192" height="192" filterUnits="userSpaceOnUse" primitiveUnits="userSpaceOnUse"><feFlood></feFlood><feComposite in2="SourceAlpha" operator="in"></feComposite><feGaussianBlur stdDeviation="4.47"></feGaussianBlur><feOffset dx="0" dy="0" result="afterOffset"></feOffset><feFlood flood-color="#000000" flood-opacity="1"></feFlood><feComposite in2="afterOffset" operator="in"></feComposite><feMorphology operator="dilate" radius="20"></feMorphology><feComposite in2="SourceAlpha" operator="out"></feComposite></filter><path d="M435.44 196.93C435.44 214.04 421.55 227.93 404.44 227.93C387.34 227.93 373.44 214.04 373.44 196.93C373.44 179.82 387.34 165.93 404.44 165.93C421.55 165.93 435.44 179.82 435.44 196.93Z" id="e1dtTOMAMH" fill="white" fill-opacity="1" filter="url(#shadow5659172)"></path></g><use xlink:href="#bmY6NZBoZ" opacity="1" fill="#ff7f00" fill-opacity="1"></use></g><g><g><filter id="shadow16036320" x="47.14" y="184.96" width="547.2" height="366.62" filterUnits="userSpaceOnUse" primitiveUnits="userSpaceOnUse"><feFlood></feFlood><feComposite in2="SourceAlpha" operator="in"></feComposite><feGaussianBlur stdDeviation="4.47"></feGaussianBlur><feOffset dx="0" dy="0" result="afterOffset"></feOffset><feFlood flood-color="#000000" flood-opacity="1"></feFlood><feComposite in2="afterOffset" operator="in"></feComposite><feMorphology operator="dilate" radius="20"></feMorphology><feComposite in2="SourceAlpha" operator="out"></feComposite></filter><path d="M112.14 249.96L529.34 249.96L529.34 486.58L112.14 486.58L112.14 249.96Z" id="beLh9rd99" fill="white" fill-opacity="1" filter="url(#shadow16036320)"></path></g><use xlink:href="#aLOu1XVBS" opacity="1" fill="#000000" fill-opacity="1"></use><g><use xlink:href="#aLOu1XVBS" opacity="1" fill-opacity="0" stroke="#ff7f00" stroke-width="15" stroke-opacity="1"></use></g></g><g><g><use xlink:href="#c1ijj2ujWc" opacity="1" fill-opacity="0" stroke="#ff7f00" stroke-width="15" stroke-opacity="1"></use></g></g></g></g></svg>