<?xml version="1.0" encoding="UTF-8" standalone="no"?>
<!DOCTYPE svg PUBLIC "-//W3C//DTD SVG 1.1//EN" "http://www.w3.org/Graphics/SVG/1.1/DTD/svg11.dtd">
<svg version="1.1" xmlns="http://www.w3.org/2000/svg" xmlns:xlink="http://www.w3.org/1999/xlink" preserveAspectRatio="xMidYMid meet" viewBox="0 0 640 640" width="200" height="200"><defs><path d="M308.78 193.96C308.78 211.07 294.89 224.96 277.78 224.96C260.67 224.96 246.78 211.07 246.78 193.96C246.78 176.85 260.67 162.96 277.78 162.96C294.89 162.96 308.78 176.85 308.78 193.96Z" id="aVDfqUuf"></path><path d="M393.22 193.96C393.22 211.07 379.33 224.96 362.22 224.96C345.11 224.96 331.22 211.07 331.22 193.96C331.22 176.85 345.11 162.96 362.22 162.96C379.33 162.96 393.22 176.85 393.22 193.96Z" id="f8eYBbNBZt"></path><path d="M111.4 249.59L528.6 249.59L528.6 486.21L111.4 486.21L111.4 249.59Z" id="byy653Ymf"></path><path d="M115.1 477.69L524.9 258.11L524.9 477.69L115.1 258.11" id="ckwOzZNmw"></path></defs><g><g><g><g><filter id="shadow7093712" x="181.78" y="97.96" width="192" height="192" filterUnits="userSpaceOnUse" primitiveUnits="userSpaceOnUse"><feFlood></feFlood><feComposite in2="SourceAlpha" operator="in"></feComposite><feGaussianBlur stdDeviation="4.47"></feGaussianBlur><feOffset dx="0" dy="0" result="afterOffset"></feOffset><feFlood flood-color="#000000" flood-opacity="1"></feFlood><feComposite in2="afterOffset" operator="in"></feComposite><feMorphology operator="dilate" radius="20"></feMorphology><feComposite in2="SourceAlpha" operator="out"></feComposite></filter><path d="M308.78 193.96C308.78 211.07 294.89 224.96 277.78 224.96C260.67 224.96 246.78 211.07 246.78 193.96C246.78 176.85 260.67 162.96 277.78 162.96C294.89 162.96 308.78 176.85 308.78 193.96Z" id="a3YzLjpA" fill="white" fill-opacity="1" filter="url(#shadow7093712)"></path></g><use xlink:href="#aVDfqUuf" opacity="1" fill="#00ff00" fill-opacity="1"></use></g><g><g><filter id="shadow5646249" x="266.22" y="97.96" width="192" height="192" filterUnits="userSpaceOnUse" primitiveUnits="userSpaceOnUse"><feFlood></feFlood><feComposite in2="SourceAlpha" operator="in"></feComposite><feGaussianBlur stdDeviation="4.47"></feGaussianBlur><feOffset dx="0" dy="0" result="afterOffset"></feOffset><feFlood flood-color="#000000" flood-opacity="1"></feFlood><feComposite in2="afterOffset" operator="in"></feComposite><feMorphology operator="dilate" radius="20"></feMorphology><feComposite in2="SourceAlpha" operator="out"></feComposite></filter><path d="M393.22 193.96C393.22 211.07 379.33 224.96 362.22 224.96C345.11 224.96 331.22 211.07 331.22 193.96C331.22 176.85 345.11 162.96 362.22 162.96C379.33 162.96 393.22 176.85 393.22 193.96Z" id="ahJdVRvT" fill="white" fill-opacity="1" filter="url(#shadow5646249)"></path></g><use xlink:href="#f8eYBbNBZt" opacity="1" fill="#00ff00" fill-opacity="1"></use></g><g><g><filter id="shadow5030102" x="46.4" y="184.59" width="547.2" height="366.62" filterUnits="userSpaceOnUse" primitiveUnits="userSpaceOnUse"><feFlood></feFlood><feComposite in2="SourceAlpha" operator="in"></feComposite><feGaussianBlur stdDeviation="4.47"></feGaussianBlur><feOffset dx="0" dy="0" result="afterOffset"></feOffset><feFlood flood-color="#000000" flood-opacity="1"></feFlood><feComposite in2="afterOffset" operator="in"></feComposite><feMorphology operator="dilate" radius="20"></feMorphology><feComposite in2="SourceAlpha" operator="out"></feComposite></filter><path d="M111.4 249.59L528.6 249.59L528.6 486.21L111.4 486.21L111.4 249.59Z" id="a1ITQe5S7" fill="white" fill-opacity="1" filter="url(#shadow5030102)"></path></g><use xlink:href="#byy653Ymf" opacity="1" fill="#000000" fill-opacity="1"></use><g><use xlink:href="#byy653Ymf" opacity="1" fill-opacity="0" stroke="#00ff00" stroke-width="15" stroke-opacity="1"></use></g></g><g><g><use xlink:href="#ckwOzZNmw" opacity="1" fill-opacity="0" stroke="#00ff00" stroke-width="15" stroke-opacity="1"></use></g></g></g></g></svg>