<?xml version="1.0" encoding="UTF-8" standalone="no"?>
<!DOCTYPE svg PUBLIC "-//W3C//DTD SVG 1.1//EN" "http://www.w3.org/Graphics/SVG/1.1/DTD/svg11.dtd">
<svg version="1.1" xmlns="http://www.w3.org/2000/svg" xmlns:xlink="http://www.w3.org/1999/xlink" preserveAspectRatio="xMidYMid meet" viewBox="0 0 640 640" width="200" height="200"><defs><path d="M367.5 179.78C367.5 204.19 346.22 224.01 320 224.01C293.78 224.01 272.5 204.19 272.5 179.78C272.5 155.37 293.78 135.56 320 135.56C346.22 135.56 367.5 155.37 367.5 179.78Z" id="c5SPk91kNU"></path><path d="M111.4 249.59L528.6 249.59L528.6 486.21L111.4 486.21L111.4 249.59Z" id="byy653Ymf"></path><path d="M115.1 477.69L524.9 258.11L524.9 477.69L115.1 258.11" id="ckwOzZNmw"></path><path d="M367.5 135.56L272.5 224.01" id="b6IZ6Bhyr3"></path></defs><g><g><g><g><filter id="shadow7121481" x="207.5" y="70.56" width="225" height="218.45" filterUnits="userSpaceOnUse" primitiveUnits="userSpaceOnUse"><feFlood></feFlood><feComposite in2="SourceAlpha" operator="in"></feComposite><feGaussianBlur stdDeviation="4.47"></feGaussianBlur><feOffset dx="0" dy="0" result="afterOffset"></feOffset><feFlood flood-color="#000000" flood-opacity="1"></feFlood><feComposite in2="afterOffset" operator="in"></feComposite><feMorphology operator="dilate" radius="20"></feMorphology><feComposite in2="SourceAlpha" operator="out"></feComposite></filter><path d="M367.5 179.78C367.5 204.19 346.22 224.01 320 224.01C293.78 224.01 272.5 204.19 272.5 179.78C272.5 155.37 293.78 135.56 320 135.56C346.22 135.56 367.5 155.37 367.5 179.78Z" id="a1izl13TJT" fill="white" fill-opacity="1" filter="url(#shadow7121481)"></path></g><use xlink:href="#c5SPk91kNU" opacity="1" fill="#000000" fill-opacity="1"></use><g><use xlink:href="#c5SPk91kNU" opacity="1" fill-opacity="0" stroke="#00ff00" stroke-width="12" stroke-opacity="1"></use></g></g><g><g><filter id="shadow5030102" x="46.4" y="184.59" width="547.2" height="366.62" filterUnits="userSpaceOnUse" primitiveUnits="userSpaceOnUse"><feFlood></feFlood><feComposite in2="SourceAlpha" operator="in"></feComposite><feGaussianBlur stdDeviation="4.47"></feGaussianBlur><feOffset dx="0" dy="0" result="afterOffset"></feOffset><feFlood flood-color="#000000" flood-opacity="1"></feFlood><feComposite in2="afterOffset" operator="in"></feComposite><feMorphology operator="dilate" radius="20"></feMorphology><feComposite in2="SourceAlpha" operator="out"></feComposite></filter><path d="M111.4 249.59L528.6 249.59L528.6 486.21L111.4 486.21L111.4 249.59Z" id="a1ITQe5S7" fill="white" fill-opacity="1" filter="url(#shadow5030102)"></path></g><use xlink:href="#byy653Ymf" opacity="1" fill="#000000" fill-opacity="1"></use><g><use xlink:href="#byy653Ymf" opacity="1" fill-opacity="0" stroke="#00ff00" stroke-width="15" stroke-opacity="1"></use></g></g><g><g><use xlink:href="#ckwOzZNmw" opacity="1" fill-opacity="0" stroke="#00ff00" stroke-width="15" stroke-opacity="1"></use></g></g><g><g><use xlink:href="#b6IZ6Bhyr3" opacity="1" fill-opacity="0" stroke="#00ff00" stroke-width="12" stroke-opacity="1"></use></g></g></g></g></svg>