<?xml version="1.0" encoding="UTF-8" standalone="no"?>
<!DOCTYPE svg PUBLIC "-//W3C//DTD SVG 1.1//EN" "http://www.w3.org/Graphics/SVG/1.1/DTD/svg11.dtd">
<svg version="1.1" xmlns="http://www.w3.org/2000/svg" xmlns:xlink="http://www.w3.org/1999/xlink" preserveAspectRatio="xMidYMid meet" viewBox="0 0 640 640" width="200" height="200"><defs><path d="M266.56 196.93C266.56 214.04 252.66 227.93 235.56 227.93C218.45 227.93 204.56 214.04 204.56 196.93C204.56 179.82 218.45 165.93 235.56 165.93C252.66 165.93 266.56 179.82 266.56 196.93Z" id="a1EiGiGAe1"></path><path d="M351 196.93C351 214.04 337.11 227.93 320 227.93C302.89 227.93 289 214.04 289 196.93C289 179.82 302.89 165.93 320 165.93C337.11 165.93 351 179.82 351 196.93Z" id="bBPjUcYWi"></path><path d="M435.44 196.93C435.44 214.04 421.55 227.93 404.44 227.93C387.34 227.93 373.44 214.04 373.44 196.93C373.44 179.82 387.34 165.93 404.44 165.93C421.55 165.93 435.44 179.82 435.44 196.93Z" id="a2iHb00jbq"></path><path d="M111.4 249.59L528.6 249.59L528.6 486.21L111.4 486.21L111.4 249.59Z" id="d3gldo8hO7"></path><path d="M115.1 477.69L524.9 258.11L524.9 477.69L115.1 258.11" id="b1lJgqyDeW"></path></defs><g><g><g><g><filter id="shadow8117968" x="139.56" y="100.93" width="192" height="192" filterUnits="userSpaceOnUse" primitiveUnits="userSpaceOnUse"><feFlood></feFlood><feComposite in2="SourceAlpha" operator="in"></feComposite><feGaussianBlur stdDeviation="4.47"></feGaussianBlur><feOffset dx="0" dy="0" result="afterOffset"></feOffset><feFlood flood-color="#000000" flood-opacity="1"></feFlood><feComposite in2="afterOffset" operator="in"></feComposite><feMorphology operator="dilate" radius="20"></feMorphology><feComposite in2="SourceAlpha" operator="out"></feComposite></filter><path d="M266.56 196.93C266.56 214.04 252.66 227.93 235.56 227.93C218.45 227.93 204.56 214.04 204.56 196.93C204.56 179.82 218.45 165.93 235.56 165.93C252.66 165.93 266.56 179.82 266.56 196.93Z" id="i1a4ipZ5IZ" fill="white" fill-opacity="1" filter="url(#shadow8117968)"></path></g><use xlink:href="#a1EiGiGAe1" opacity="1" fill="#0000ff" fill-opacity="1"></use></g><g><g><filter id="shadow11458112" x="224" y="100.93" width="192" height="192" filterUnits="userSpaceOnUse" primitiveUnits="userSpaceOnUse"><feFlood></feFlood><feComposite in2="SourceAlpha" operator="in"></feComposite><feGaussianBlur stdDeviation="4.47"></feGaussianBlur><feOffset dx="0" dy="0" result="afterOffset"></feOffset><feFlood flood-color="#000000" flood-opacity="1"></feFlood><feComposite in2="afterOffset" operator="in"></feComposite><feMorphology operator="dilate" radius="20"></feMorphology><feComposite in2="SourceAlpha" operator="out"></feComposite></filter><path d="M351 196.93C351 214.04 337.11 227.93 320 227.93C302.89 227.93 289 214.04 289 196.93C289 179.82 302.89 165.93 320 165.93C337.11 165.93 351 179.82 351 196.93Z" id="c3ae1jAF9K" fill="white" fill-opacity="1" filter="url(#shadow11458112)"></path></g><use xlink:href="#bBPjUcYWi" opacity="1" fill="#0000ff" fill-opacity="1"></use></g><g><g><filter id="shadow16555337" x="308.44" y="100.93" width="192" height="192" filterUnits="userSpaceOnUse" primitiveUnits="userSpaceOnUse"><feFlood></feFlood><feComposite in2="SourceAlpha" operator="in"></feComposite><feGaussianBlur stdDeviation="4.47"></feGaussianBlur><feOffset dx="0" dy="0" result="afterOffset"></feOffset><feFlood flood-color="#000000" flood-opacity="1"></feFlood><feComposite in2="afterOffset" operator="in"></feComposite><feMorphology operator="dilate" radius="20"></feMorphology><feComposite in2="SourceAlpha" operator="out"></feComposite></filter><path d="M435.44 196.93C435.44 214.04 421.55 227.93 404.44 227.93C387.34 227.93 373.44 214.04 373.44 196.93C373.44 179.82 387.34 165.93 404.44 165.93C421.55 165.93 435.44 179.82 435.44 196.93Z" id="feuThtsm9" fill="white" fill-opacity="1" filter="url(#shadow16555337)"></path></g><use xlink:href="#a2iHb00jbq" opacity="1" fill="#0000ff" fill-opacity="1"></use></g><g><g><filter id="shadow8308308" x="46.4" y="184.59" width="547.2" height="366.62" filterUnits="userSpaceOnUse" primitiveUnits="userSpaceOnUse"><feFlood></feFlood><feComposite in2="SourceAlpha" operator="in"></feComposite><feGaussianBlur stdDeviation="4.47"></feGaussianBlur><feOffset dx="0" dy="0" result="afterOffset"></feOffset><feFlood flood-color="#000000" flood-opacity="1"></feFlood><feComposite in2="afterOffset" operator="in"></feComposite><feMorphology operator="dilate" radius="20"></feMorphology><feComposite in2="SourceAlpha" operator="out"></feComposite></filter><path d="M111.4 249.59L528.6 249.59L528.6 486.21L111.4 486.21L111.4 249.59Z" id="e1VpcyV41O" fill="white" fill-opacity="1" filter="url(#shadow8308308)"></path></g><use xlink:href="#d3gldo8hO7" opacity="1" fill="#000000" fill-opacity="1"></use><g><use xlink:href="#d3gldo8hO7" opacity="1" fill-opacity="0" stroke="#0000ff" stroke-width="15" stroke-opacity="1"></use></g></g><g><g><use xlink:href="#b1lJgqyDeW" opacity="1" fill-opacity="0" stroke="#0000ff" stroke-width="15" stroke-opacity="1"></use></g></g></g></g></svg>