<?xml version="1.0" encoding="UTF-8" standalone="no"?>
<!DOCTYPE svg PUBLIC "-//W3C//DTD SVG 1.1//EN" "http://www.w3.org/Graphics/SVG/1.1/DTD/svg11.dtd">
<svg version="1.1" xmlns="http://www.w3.org/2000/svg" xmlns:xlink="http://www.w3.org/1999/xlink" preserveAspectRatio="xMidYMid meet" viewBox="0 0 640 640" width="200" height="200"><defs><path d="M115.1 258.11L524.9 258.11L524.9 477.69L115.1 477.69L115.1 258.11Z" id="a8YMZaeWRq"></path><path d="M115.1 477.69L524.9 258.11L524.9 477.69L115.1 258.11" id="b1fAYv121d"></path><path d="M266.56 196.93C266.56 214.04 252.66 227.93 235.56 227.93C218.45 227.93 204.56 214.04 204.56 196.93C204.56 179.82 218.45 165.93 235.56 165.93C252.66 165.93 266.56 179.82 266.56 196.93Z" id="axDHcELph"></path><path d="M350.63 196.93C350.63 214.04 336.74 227.93 319.63 227.93C302.52 227.93 288.63 214.04 288.63 196.93C288.63 179.82 302.52 165.93 319.63 165.93C336.74 165.93 350.63 179.82 350.63 196.93Z" id="cLFT0zfbw"></path><path d="M435.44 196.93C435.44 214.04 421.55 227.93 404.44 227.93C387.34 227.93 373.44 214.04 373.44 196.93C373.44 179.82 387.34 165.93 404.44 165.93C421.55 165.93 435.44 179.82 435.44 196.93Z" id="b1X2OQJ6li"></path></defs><g><g><g><g><use xlink:href="#a8YMZaeWRq" opacity="1" fill-opacity="0" stroke="#000000" stroke-width="15" stroke-opacity="1"></use></g></g><g><g><use xlink:href="#b1fAYv121d" opacity="1" fill-opacity="0" stroke="#000000" stroke-width="9" stroke-opacity="1"></use></g></g><g><use xlink:href="#axDHcELph" opacity="1" fill="#000000" fill-opacity="1"></use></g><g><use xlink:href="#cLFT0zfbw" opacity="1" fill="#000000" fill-opacity="1"></use></g><g><use xlink:href="#b1X2OQJ6li" opacity="1" fill="#000000" fill-opacity="1"></use></g></g></g></svg>