<?xml version="1.0" encoding="UTF-8" standalone="no"?>
<!DOCTYPE svg PUBLIC "-//W3C//DTD SVG 1.1//EN" "http://www.w3.org/Graphics/SVG/1.1/DTD/svg11.dtd">
<svg version="1.1" xmlns="http://www.w3.org/2000/svg" xmlns:xlink="http://www.w3.org/1999/xlink" preserveAspectRatio="xMidYMid meet" viewBox="0 0 640 640" width="200" height="200"><defs><path d="M351 194.7C351 211.81 337.11 225.7 320 225.7C302.89 225.7 289 211.81 289 194.7C289 177.59 302.89 163.7 320 163.7C337.11 163.7 351 177.59 351 194.7Z" id="c11Zg2vAj9"></path><path d="M111.4 249.59L528.6 249.59L528.6 486.21L111.4 486.21L111.4 249.59Z" id="byy653Ymf"></path><path d="M115.1 477.69L524.9 258.11L524.9 477.69L115.1 258.11" id="ckwOzZNmw"></path></defs><g><g><g><g><filter id="shadow6272701" x="224" y="98.7" width="192" height="192" filterUnits="userSpaceOnUse" primitiveUnits="userSpaceOnUse"><feFlood></feFlood><feComposite in2="SourceAlpha" operator="in"></feComposite><feGaussianBlur stdDeviation="4.47"></feGaussianBlur><feOffset dx="0" dy="0" result="afterOffset"></feOffset><feFlood flood-color="#000000" flood-opacity="1"></feFlood><feComposite in2="afterOffset" operator="in"></feComposite><feMorphology operator="dilate" radius="20"></feMorphology><feComposite in2="SourceAlpha" operator="out"></feComposite></filter><path d="M351 194.7C351 211.81 337.11 225.7 320 225.7C302.89 225.7 289 211.81 289 194.7C289 177.59 302.89 163.7 320 163.7C337.11 163.7 351 177.59 351 194.7Z" id="coha6ahwU" fill="white" fill-opacity="1" filter="url(#shadow6272701)"></path></g><use xlink:href="#c11Zg2vAj9" opacity="1" fill="#0000ff" fill-opacity="1"></use></g><g><g><filter id="shadow5030102" x="46.4" y="184.59" width="547.2" height="366.62" filterUnits="userSpaceOnUse" primitiveUnits="userSpaceOnUse"><feFlood></feFlood><feComposite in2="SourceAlpha" operator="in"></feComposite><feGaussianBlur stdDeviation="4.47"></feGaussianBlur><feOffset dx="0" dy="0" result="afterOffset"></feOffset><feFlood flood-color="#000000" flood-opacity="1"></feFlood><feComposite in2="afterOffset" operator="in"></feComposite><feMorphology operator="dilate" radius="20"></feMorphology><feComposite in2="SourceAlpha" operator="out"></feComposite></filter><path d="M111.4 249.59L528.6 249.59L528.6 486.21L111.4 486.21L111.4 249.59Z" id="a1ITQe5S7" fill="white" fill-opacity="1" filter="url(#shadow5030102)"></path></g><use xlink:href="#byy653Ymf" opacity="1" fill="#000000" fill-opacity="1"></use><g><use xlink:href="#byy653Ymf" opacity="1" fill-opacity="0" stroke="#0000ff" stroke-width="15" stroke-opacity="1"></use></g></g><g><g><use xlink:href="#ckwOzZNmw" opacity="1" fill-opacity="0" stroke="#0000ff" stroke-width="15" stroke-opacity="1"></use></g></g></g></g></svg>